<svg xmlns="http://www.w3.org/2000/svg"  viewBox="0 0 24 24" width="24px" height="24px"><path d="M 13.832031 3.4453125 L 12.167969 4.5546875 L 15.130859 9 L 9 9 L 9 6 L 7 6 L 7 9 L 5 9 A 1.0001 1.0001 0 0 0 4.7578125 9.0292969 L 1.5136719 9.8417969 C 0.629246 10.063755 -2.9605947e-16 10.870038 0 11.78125 L 0 17 A 1.0001 1.0001 0 0 0 1 18 L 3.3554688 18 C 3.9222997 19.175306 5.1168481 20 6.5 20 C 7.8831519 20 9.0777003 19.175306 9.6445312 18 L 14.355469 18 C 14.9223 19.175306 16.116848 20 17.5 20 C 18.883152 20 20.0777 19.175306 20.644531 18 L 23 18 A 1.0001 1.0001 0 0 0 24 17 L 24 11.820312 C 24 10.873712 23.320385 10.045729 22.392578 9.859375 A 1.0001 1.0001 0 0 0 22.355469 9.8515625 L 17.589844 9.0839844 L 13.832031 3.4453125 z M 5.1230469 11 L 16.919922 11 L 22 11.820312 L 22 16 L 20.949219 16 C 20.701823 14.314589 19.249933 13 17.5 13 C 15.750067 13 14.298177 14.314589 14.050781 16 L 9.9492188 16 C 9.7018235 14.314589 8.2499335 13 6.5 13 C 4.7500665 13 3.2981765 14.314589 3.0507812 16 L 2 16 L 2 11.78125 L 5.1230469 11 z M 6.5 15 C 7.3402718 15 8 15.659728 8 16.5 C 8 17.340272 7.3402718 18 6.5 18 C 5.6597282 18 5 17.340272 5 16.5 C 5 15.659728 5.6597282 15 6.5 15 z M 17.5 15 C 18.340272 15 19 15.659728 19 16.5 C 19 17.340272 18.340272 18 17.5 18 C 16.659728 18 16 17.340272 16 16.5 C 16 15.659728 16.659728 15 17.5 15 z"/></svg>