<?xml version="1.0"?><svg xmlns="http://www.w3.org/2000/svg"  viewBox="0 0 24 24" width="24px" height="24px">    <path d="M 12 2 C 9.4102636 2 7.0636249 2.3946856 5.2753906 3.0859375 C 4.3812735 3.4315635 3.6225453 3.8481072 3.0332031 4.3867188 C 2.5108206 4.8641345 2.1211433 5.4918507 2.0351562 6.2050781 A 1.0001 1.0001 0 0 0 2 6.4785156 L 2 17.691406 A 1.0001 1.0001 0 0 0 2.078125 18.089844 C 2.078125 18.089844 2.078125 18.091797 2.078125 18.091797 C 2.2305976 18.670576 2.5912328 19.178094 3.0332031 19.582031 C 3.622497 20.120615 4.3813019 20.537159 5.2753906 20.882812 C 7.0635681 21.57412 9.4100274 21.96875 12 21.96875 C 14.589973 21.96875 16.936432 21.57412 18.724609 20.882812 C 19.618698 20.53716 20.377503 20.120615 20.966797 19.582031 C 21.408767 19.178094 21.769402 18.670576 21.921875 18.091797 A 1.0001 1.0001 0 0 0 22 17.691406 L 22 6.7441406 A 1.0001 1.0001 0 0 0 21.986328 6.578125 C 21.987831 6.5441041 22 6.5129015 22 6.4785156 C 22 5.648643 21.556139 4.9253302 20.966797 4.3867188 C 20.377455 3.8481072 19.618727 3.4315635 18.724609 3.0859375 C 16.936375 2.3946856 14.589736 2 12 2 z M 12 4 C 14.380826 4 16.534781 4.3832734 18.003906 4.9511719 C 18.738469 5.2351211 19.295679 5.5694492 19.617188 5.8632812 C 19.938694 6.1571133 20 6.3476889 20 6.4785156 C 20 6.6093424 19.938695 6.8018711 19.617188 7.0957031 C 19.29568 7.3895352 18.738469 7.7219102 18.003906 8.0058594 C 16.534781 8.5737578 14.380826 8.9570313 12 8.9570312 C 9.6191737 8.9570312 7.4652186 8.5737578 5.9960938 8.0058594 C 5.2615312 7.7219102 4.7043199 7.3895352 4.3828125 7.0957031 C 4.0613051 6.8018711 4 6.6093424 4 6.4785156 C 4 6.3476889 4.0613051 6.1571133 4.3828125 5.8632812 C 4.7043199 5.5694492 5.2615313 5.2351211 5.9960938 4.9511719 C 7.4652187 4.3832734 9.6191737 4 12 4 z M 12 5.6054688 A 4.4879999 0.87300003 0 0 0 7.5117188 6.4785156 A 4.4879999 0.87300003 0 0 0 12 7.3515625 A 4.4879999 0.87300003 0 0 0 16.488281 6.4785156 A 4.4879999 0.87300003 0 0 0 12 5.6054688 z M 4 9.2695312 C 4.3859996 9.4934353 4.8118895 9.6919248 5.2753906 9.8710938 C 7.0636249 10.562346 9.4102636 10.957031 12 10.957031 C 14.589736 10.957031 16.936375 10.562346 18.724609 9.8710938 C 19.188111 9.6919248 19.614 9.4934353 20 9.2695312 L 20 17.490234 C 20 17.620927 19.938669 17.811646 19.617188 18.105469 C 19.2957 18.399291 18.738443 18.733607 18.003906 19.017578 C 16.534834 19.58552 14.381027 19.96875 12 19.96875 C 9.6189726 19.96875 7.4651662 19.58552 5.9960938 19.017578 C 5.2615575 18.733607 4.7042999 18.399291 4.3828125 18.105469 C 4.0613251 17.811646 4 17.620927 4 17.490234 L 4 9.2695312 z M 9 12 A 1 1 0 0 0 8 13 A 1 1 0 0 0 9 14 A 1 1 0 0 0 10 13 A 1 1 0 0 0 9 12 z M 15 12 A 1 1 0 0 0 14 13 A 1 1 0 0 0 15 14 A 1 1 0 0 0 16 13 A 1 1 0 0 0 15 12 z M 10 16 C 10 17.105 10.895 18 12 18 C 13.105 18 14 17.105 14 16 L 10 16 z"/></svg>