<svg xmlns="http://www.w3.org/2000/svg" xmlns:xlink="http://www.w3.org/1999/xlink" viewBox="0,0,256,256" width="24px" height="24px" fill-rule="nonzero"><g fill="#333333" fill-rule="nonzero" stroke="none" stroke-width="1" stroke-linecap="butt" stroke-linejoin="miter" stroke-miterlimit="10" stroke-dasharray="" stroke-dashoffset="0" font-family="none" font-weight="none" font-size="none" text-anchor="none" style="mix-blend-mode: normal"><g transform="scale(10.66667,10.66667)"><path d="M11,2v1h-9v2h1v10c0,1.105 0.895,2 2,2h4.59961l-1.59961,4h2l1.59961,-4h0.80078l1.59961,4h2l-1.59961,-4h4.59961c1.105,0 2,-0.895 2,-2v-10h1v-2h-9v-1zM5,5h14v10h-14zM11,7.58594l-2,2l-1.29297,-1.29297l-1.41406,1.41406l2.70703,2.70703l2,-2l3,3l3.70703,-3.70703l-1.41406,-1.41406l-2.29297,2.29297z"></path></g></g></svg>